<mxfile host="65bd71144e">
    <diagram id="C5RBs43oDa-KdzZeNtuy" name="Page-1">
        <mxGraphModel dx="1444" dy="402" grid="1" gridSize="10" guides="1" tooltips="1" connect="1" arrows="1" fold="1" page="1" pageScale="1" pageWidth="827" pageHeight="1169" math="0" shadow="0">
            <root>
                <mxCell id="WIyWlLk6GJQsqaUBKTNV-0"/>
                <mxCell id="WIyWlLk6GJQsqaUBKTNV-1" parent="WIyWlLk6GJQsqaUBKTNV-0"/>
                <mxCell id="j3wj6hXbvJdG49vxagXG-0" value="" style="rounded=1;whiteSpace=wrap;html=1;absoluteArcSize=1;arcSize=14;strokeWidth=2;fillColor=#e6d0de;strokeColor=#996185;gradientColor=#d5739d;" parent="WIyWlLk6GJQsqaUBKTNV-1" vertex="1">
                    <mxGeometry x="970" y="2270" width="1370" height="1320" as="geometry"/>
                </mxCell>
                <mxCell id="j3wj6hXbvJdG49vxagXG-1" value="User" style="swimlane;fontStyle=1;align=center;verticalAlign=top;childLayout=stackLayout;horizontal=1;startSize=50;horizontalStack=0;resizeParent=1;resizeParentMax=0;resizeLast=0;collapsible=1;marginBottom=0;" parent="WIyWlLk6GJQsqaUBKTNV-1" vertex="1">
                    <mxGeometry x="1454" y="2370" width="200" height="240" as="geometry"/>
                </mxCell>
                <mxCell id="j3wj6hXbvJdG49vxagXG-2" value="+ id: int" style="text;strokeColor=none;fillColor=none;align=left;verticalAlign=top;spacingLeft=4;spacingRight=4;overflow=hidden;rotatable=0;points=[[0,0.5],[1,0.5]];portConstraint=eastwest;" parent="j3wj6hXbvJdG49vxagXG-1" vertex="1">
                    <mxGeometry y="50" width="200" height="26" as="geometry"/>
                </mxCell>
                <mxCell id="j3wj6hXbvJdG49vxagXG-3" value="+ First_name: varchare" style="text;strokeColor=none;fillColor=none;align=left;verticalAlign=top;spacingLeft=4;spacingRight=4;overflow=hidden;rotatable=0;points=[[0,0.5],[1,0.5]];portConstraint=eastwest;" parent="j3wj6hXbvJdG49vxagXG-1" vertex="1">
                    <mxGeometry y="76" width="200" height="26" as="geometry"/>
                </mxCell>
                <mxCell id="j3wj6hXbvJdG49vxagXG-4" value="+Last_name: varchare" style="text;strokeColor=none;fillColor=none;align=left;verticalAlign=top;spacingLeft=4;spacingRight=4;overflow=hidden;rotatable=0;points=[[0,0.5],[1,0.5]];portConstraint=eastwest;" parent="j3wj6hXbvJdG49vxagXG-1" vertex="1">
                    <mxGeometry y="102" width="200" height="26" as="geometry"/>
                </mxCell>
                <mxCell id="j3wj6hXbvJdG49vxagXG-5" value="+Email: varchare" style="text;strokeColor=none;fillColor=none;align=left;verticalAlign=top;spacingLeft=4;spacingRight=4;overflow=hidden;rotatable=0;points=[[0,0.5],[1,0.5]];portConstraint=eastwest;" parent="j3wj6hXbvJdG49vxagXG-1" vertex="1">
                    <mxGeometry y="128" width="200" height="26" as="geometry"/>
                </mxCell>
                <mxCell id="j3wj6hXbvJdG49vxagXG-6" value="+Password: varchare" style="text;strokeColor=none;fillColor=none;align=left;verticalAlign=top;spacingLeft=4;spacingRight=4;overflow=hidden;rotatable=0;points=[[0,0.5],[1,0.5]];portConstraint=eastwest;" parent="j3wj6hXbvJdG49vxagXG-1" vertex="1">
                    <mxGeometry y="154" width="200" height="26" as="geometry"/>
                </mxCell>
                <mxCell id="j3wj6hXbvJdG49vxagXG-7" value="" style="line;strokeWidth=1;fillColor=none;align=left;verticalAlign=middle;spacingTop=-1;spacingLeft=3;spacingRight=3;rotatable=0;labelPosition=right;points=[];portConstraint=eastwest;strokeColor=inherit;" parent="j3wj6hXbvJdG49vxagXG-1" vertex="1">
                    <mxGeometry y="180" width="200" height="8" as="geometry"/>
                </mxCell>
                <mxCell id="j3wj6hXbvJdG49vxagXG-8" value="+ login(type): bool" style="text;strokeColor=none;fillColor=none;align=left;verticalAlign=top;spacingLeft=4;spacingRight=4;overflow=hidden;rotatable=0;points=[[0,0.5],[1,0.5]];portConstraint=eastwest;" parent="j3wj6hXbvJdG49vxagXG-1" vertex="1">
                    <mxGeometry y="188" width="200" height="26" as="geometry"/>
                </mxCell>
                <mxCell id="j3wj6hXbvJdG49vxagXG-9" value="+ Display_appointment(type): table" style="text;strokeColor=none;fillColor=none;align=left;verticalAlign=top;spacingLeft=4;spacingRight=4;overflow=hidden;rotatable=0;points=[[0,0.5],[1,0.5]];portConstraint=eastwest;" parent="j3wj6hXbvJdG49vxagXG-1" vertex="1">
                    <mxGeometry y="214" width="200" height="26" as="geometry"/>
                </mxCell>
                <mxCell id="j3wj6hXbvJdG49vxagXG-10" value="Admin" style="swimlane;fontStyle=1;align=center;verticalAlign=top;childLayout=stackLayout;horizontal=1;startSize=50;horizontalStack=0;resizeParent=1;resizeParentMax=0;resizeLast=0;collapsible=1;marginBottom=0;" parent="WIyWlLk6GJQsqaUBKTNV-1" vertex="1">
                    <mxGeometry x="1850" y="2720" width="260" height="344" as="geometry">
                        <mxRectangle x="1480" y="2780" width="80" height="50" as="alternateBounds"/>
                    </mxGeometry>
                </mxCell>
                <mxCell id="j3wj6hXbvJdG49vxagXG-11" value="+ field: type" style="text;strokeColor=none;fillColor=none;align=left;verticalAlign=top;spacingLeft=4;spacingRight=4;overflow=hidden;rotatable=0;points=[[0,0.5],[1,0.5]];portConstraint=eastwest;" parent="j3wj6hXbvJdG49vxagXG-10" vertex="1">
                    <mxGeometry y="50" width="260" height="26" as="geometry"/>
                </mxCell>
                <mxCell id="j3wj6hXbvJdG49vxagXG-12" value="" style="line;strokeWidth=1;fillColor=none;align=left;verticalAlign=middle;spacingTop=-1;spacingLeft=3;spacingRight=3;rotatable=0;labelPosition=right;points=[];portConstraint=eastwest;strokeColor=inherit;" parent="j3wj6hXbvJdG49vxagXG-10" vertex="1">
                    <mxGeometry y="76" width="260" height="8" as="geometry"/>
                </mxCell>
                <mxCell id="j3wj6hXbvJdG49vxagXG-13" value="+ Create_new_doctor(type): type" style="text;strokeColor=none;fillColor=none;align=left;verticalAlign=top;spacingLeft=4;spacingRight=4;overflow=hidden;rotatable=0;points=[[0,0.5],[1,0.5]];portConstraint=eastwest;" parent="j3wj6hXbvJdG49vxagXG-10" vertex="1">
                    <mxGeometry y="84" width="260" height="26" as="geometry"/>
                </mxCell>
                <mxCell id="j3wj6hXbvJdG49vxagXG-14" value="+ Delete_doctor(type): type" style="text;strokeColor=none;fillColor=none;align=left;verticalAlign=top;spacingLeft=4;spacingRight=4;overflow=hidden;rotatable=0;points=[[0,0.5],[1,0.5]];portConstraint=eastwest;" parent="j3wj6hXbvJdG49vxagXG-10" vertex="1">
                    <mxGeometry y="110" width="260" height="26" as="geometry"/>
                </mxCell>
                <mxCell id="j3wj6hXbvJdG49vxagXG-15" value="+ Update_doctor(type): type" style="text;strokeColor=none;fillColor=none;align=left;verticalAlign=top;spacingLeft=4;spacingRight=4;overflow=hidden;rotatable=0;points=[[0,0.5],[1,0.5]];portConstraint=eastwest;" parent="j3wj6hXbvJdG49vxagXG-10" vertex="1">
                    <mxGeometry y="136" width="260" height="26" as="geometry"/>
                </mxCell>
                <mxCell id="j3wj6hXbvJdG49vxagXG-16" value="+ Display_doctor(type): type  " style="text;strokeColor=none;fillColor=none;align=left;verticalAlign=top;spacingLeft=4;spacingRight=4;overflow=hidden;rotatable=0;points=[[0,0.5],[1,0.5]];portConstraint=eastwest;" parent="j3wj6hXbvJdG49vxagXG-10" vertex="1">
                    <mxGeometry y="162" width="260" height="26" as="geometry"/>
                </mxCell>
                <mxCell id="j3wj6hXbvJdG49vxagXG-17" value="+ Display_sesission(type): type  " style="text;strokeColor=none;fillColor=none;align=left;verticalAlign=top;spacingLeft=4;spacingRight=4;overflow=hidden;rotatable=0;points=[[0,0.5],[1,0.5]];portConstraint=eastwest;" parent="j3wj6hXbvJdG49vxagXG-10" vertex="1">
                    <mxGeometry y="188" width="260" height="26" as="geometry"/>
                </mxCell>
                <mxCell id="j3wj6hXbvJdG49vxagXG-18" value="+ Create_sesission(type): type  " style="text;strokeColor=none;fillColor=none;align=left;verticalAlign=top;spacingLeft=4;spacingRight=4;overflow=hidden;rotatable=0;points=[[0,0.5],[1,0.5]];portConstraint=eastwest;" parent="j3wj6hXbvJdG49vxagXG-10" vertex="1">
                    <mxGeometry y="214" width="260" height="26" as="geometry"/>
                </mxCell>
                <mxCell id="j3wj6hXbvJdG49vxagXG-19" value="+ Update_sesission(type): type  " style="text;strokeColor=none;fillColor=none;align=left;verticalAlign=top;spacingLeft=4;spacingRight=4;overflow=hidden;rotatable=0;points=[[0,0.5],[1,0.5]];portConstraint=eastwest;" parent="j3wj6hXbvJdG49vxagXG-10" vertex="1">
                    <mxGeometry y="240" width="260" height="26" as="geometry"/>
                </mxCell>
                <mxCell id="j3wj6hXbvJdG49vxagXG-20" value="+ Remove_sesission(type): type  " style="text;strokeColor=none;fillColor=none;align=left;verticalAlign=top;spacingLeft=4;spacingRight=4;overflow=hidden;rotatable=0;points=[[0,0.5],[1,0.5]];portConstraint=eastwest;" parent="j3wj6hXbvJdG49vxagXG-10" vertex="1">
                    <mxGeometry y="266" width="260" height="26" as="geometry"/>
                </mxCell>
                <mxCell id="j3wj6hXbvJdG49vxagXG-21" value="+ Display_patient_details(type): type  " style="text;strokeColor=none;fillColor=none;align=left;verticalAlign=top;spacingLeft=4;spacingRight=4;overflow=hidden;rotatable=0;points=[[0,0.5],[1,0.5]];portConstraint=eastwest;" parent="j3wj6hXbvJdG49vxagXG-10" vertex="1">
                    <mxGeometry y="292" width="260" height="26" as="geometry"/>
                </mxCell>
                <mxCell id="j3wj6hXbvJdG49vxagXG-22" value="+ Display_patient_details(type): type  " style="text;strokeColor=none;fillColor=none;align=left;verticalAlign=top;spacingLeft=4;spacingRight=4;overflow=hidden;rotatable=0;points=[[0,0.5],[1,0.5]];portConstraint=eastwest;" parent="j3wj6hXbvJdG49vxagXG-10" vertex="1">
                    <mxGeometry y="318" width="260" height="26" as="geometry"/>
                </mxCell>
                <mxCell id="j3wj6hXbvJdG49vxagXG-23" value="Doctor" style="swimlane;fontStyle=1;align=center;verticalAlign=top;childLayout=stackLayout;horizontal=1;startSize=50;horizontalStack=0;resizeParent=1;resizeParentMax=0;resizeLast=0;collapsible=1;marginBottom=0;" parent="WIyWlLk6GJQsqaUBKTNV-1" vertex="1">
                    <mxGeometry x="1430" y="2730" width="240" height="214" as="geometry"/>
                </mxCell>
                <mxCell id="j3wj6hXbvJdG49vxagXG-24" value="+ Speciality: varchare" style="text;strokeColor=none;fillColor=none;align=left;verticalAlign=top;spacingLeft=4;spacingRight=4;overflow=hidden;rotatable=0;points=[[0,0.5],[1,0.5]];portConstraint=eastwest;" parent="j3wj6hXbvJdG49vxagXG-23" vertex="1">
                    <mxGeometry y="50" width="240" height="26" as="geometry"/>
                </mxCell>
                <mxCell id="j3wj6hXbvJdG49vxagXG-25" value="" style="line;strokeWidth=1;fillColor=none;align=left;verticalAlign=middle;spacingTop=-1;spacingLeft=3;spacingRight=3;rotatable=0;labelPosition=right;points=[];portConstraint=eastwest;strokeColor=inherit;" parent="j3wj6hXbvJdG49vxagXG-23" vertex="1">
                    <mxGeometry y="76" width="240" height="8" as="geometry"/>
                </mxCell>
                <mxCell id="j3wj6hXbvJdG49vxagXG-26" value="+ Display_sessions(type): type" style="text;strokeColor=none;fillColor=none;align=left;verticalAlign=top;spacingLeft=4;spacingRight=4;overflow=hidden;rotatable=0;points=[[0,0.5],[1,0.5]];portConstraint=eastwest;" parent="j3wj6hXbvJdG49vxagXG-23" vertex="1">
                    <mxGeometry y="84" width="240" height="26" as="geometry"/>
                </mxCell>
                <mxCell id="j3wj6hXbvJdG49vxagXG-27" value="+ Display_patient_info(type): type" style="text;strokeColor=none;fillColor=none;align=left;verticalAlign=top;spacingLeft=4;spacingRight=4;overflow=hidden;rotatable=0;points=[[0,0.5],[1,0.5]];portConstraint=eastwest;" parent="j3wj6hXbvJdG49vxagXG-23" vertex="1">
                    <mxGeometry y="110" width="240" height="26" as="geometry"/>
                </mxCell>
                <mxCell id="j3wj6hXbvJdG49vxagXG-28" value="+ Update_accounte(type): type" style="text;strokeColor=none;fillColor=none;align=left;verticalAlign=top;spacingLeft=4;spacingRight=4;overflow=hidden;rotatable=0;points=[[0,0.5],[1,0.5]];portConstraint=eastwest;" parent="j3wj6hXbvJdG49vxagXG-23" vertex="1">
                    <mxGeometry y="136" width="240" height="26" as="geometry"/>
                </mxCell>
                <mxCell id="j3wj6hXbvJdG49vxagXG-29" value="+ Delete_accounte(type): type" style="text;strokeColor=none;fillColor=none;align=left;verticalAlign=top;spacingLeft=4;spacingRight=4;overflow=hidden;rotatable=0;points=[[0,0.5],[1,0.5]];portConstraint=eastwest;" parent="j3wj6hXbvJdG49vxagXG-23" vertex="1">
                    <mxGeometry y="162" width="240" height="26" as="geometry"/>
                </mxCell>
                <mxCell id="j3wj6hXbvJdG49vxagXG-30" value="+ Cancel_session(type): type" style="text;strokeColor=none;fillColor=none;align=left;verticalAlign=top;spacingLeft=4;spacingRight=4;overflow=hidden;rotatable=0;points=[[0,0.5],[1,0.5]];portConstraint=eastwest;" parent="j3wj6hXbvJdG49vxagXG-23" vertex="1">
                    <mxGeometry y="188" width="240" height="26" as="geometry"/>
                </mxCell>
                <mxCell id="j3wj6hXbvJdG49vxagXG-31" value="Patient" style="swimlane;fontStyle=1;align=center;verticalAlign=top;childLayout=stackLayout;horizontal=1;startSize=50;horizontalStack=0;resizeParent=1;resizeParentMax=0;resizeLast=0;collapsible=1;marginBottom=0;" parent="WIyWlLk6GJQsqaUBKTNV-1" vertex="1">
                    <mxGeometry x="1050" y="2730" width="250" height="214" as="geometry"/>
                </mxCell>
                <mxCell id="j3wj6hXbvJdG49vxagXG-32" value="+ Birth_Date: date" style="text;strokeColor=none;fillColor=none;align=left;verticalAlign=top;spacingLeft=4;spacingRight=4;overflow=hidden;rotatable=0;points=[[0,0.5],[1,0.5]];portConstraint=eastwest;" parent="j3wj6hXbvJdG49vxagXG-31" vertex="1">
                    <mxGeometry y="50" width="250" height="26" as="geometry"/>
                </mxCell>
                <mxCell id="j3wj6hXbvJdG49vxagXG-33" value="+ CIN: varchare" style="text;strokeColor=none;fillColor=none;align=left;verticalAlign=top;spacingLeft=4;spacingRight=4;overflow=hidden;rotatable=0;points=[[0,0.5],[1,0.5]];portConstraint=eastwest;" parent="j3wj6hXbvJdG49vxagXG-31" vertex="1">
                    <mxGeometry y="76" width="250" height="26" as="geometry"/>
                </mxCell>
                <mxCell id="j3wj6hXbvJdG49vxagXG-34" value="+ Phone_number : int" style="text;strokeColor=none;fillColor=none;align=left;verticalAlign=top;spacingLeft=4;spacingRight=4;overflow=hidden;rotatable=0;points=[[0,0.5],[1,0.5]];portConstraint=eastwest;" parent="j3wj6hXbvJdG49vxagXG-31" vertex="1">
                    <mxGeometry y="102" width="250" height="26" as="geometry"/>
                </mxCell>
                <mxCell id="j3wj6hXbvJdG49vxagXG-35" value="" style="line;strokeWidth=1;fillColor=none;align=left;verticalAlign=middle;spacingTop=-1;spacingLeft=3;spacingRight=3;rotatable=0;labelPosition=right;points=[];portConstraint=eastwest;strokeColor=inherit;" parent="j3wj6hXbvJdG49vxagXG-31" vertex="1">
                    <mxGeometry y="128" width="250" height="8" as="geometry"/>
                </mxCell>
                <mxCell id="j3wj6hXbvJdG49vxagXG-36" value="+ Book_Session(type): bool" style="text;strokeColor=none;fillColor=none;align=left;verticalAlign=top;spacingLeft=4;spacingRight=4;overflow=hidden;rotatable=0;points=[[0,0.5],[1,0.5]];portConstraint=eastwest;" parent="j3wj6hXbvJdG49vxagXG-31" vertex="1">
                    <mxGeometry y="136" width="250" height="26" as="geometry"/>
                </mxCell>
                <mxCell id="j3wj6hXbvJdG49vxagXG-37" value="+ Display_hold_rezervation(type): bool" style="text;strokeColor=none;fillColor=none;align=left;verticalAlign=top;spacingLeft=4;spacingRight=4;overflow=hidden;rotatable=0;points=[[0,0.5],[1,0.5]];portConstraint=eastwest;" parent="j3wj6hXbvJdG49vxagXG-31" vertex="1">
                    <mxGeometry y="162" width="250" height="26" as="geometry"/>
                </mxCell>
                <mxCell id="j3wj6hXbvJdG49vxagXG-38" value="+ sign_up(type): bool" style="text;strokeColor=none;fillColor=none;align=left;verticalAlign=top;spacingLeft=4;spacingRight=4;overflow=hidden;rotatable=0;points=[[0,0.5],[1,0.5]];portConstraint=eastwest;" parent="j3wj6hXbvJdG49vxagXG-31" vertex="1">
                    <mxGeometry y="188" width="250" height="26" as="geometry"/>
                </mxCell>
                <mxCell id="j3wj6hXbvJdG49vxagXG-39" value="" style="endArrow=none;html=1;edgeStyle=orthogonalEdgeStyle;rounded=0;entryX=0.854;entryY=1.019;entryDx=0;entryDy=0;entryPerimeter=0;exitX=0.455;exitY=0.816;exitDx=0;exitDy=0;exitPerimeter=0;" parent="WIyWlLk6GJQsqaUBKTNV-1" source="j3wj6hXbvJdG49vxagXG-49" target="j3wj6hXbvJdG49vxagXG-30" edge="1">
                    <mxGeometry relative="1" as="geometry">
                        <mxPoint x="1360" y="3360" as="sourcePoint"/>
                        <mxPoint x="1540" y="3100" as="targetPoint"/>
                        <Array as="points">
                            <mxPoint x="1231" y="3440"/>
                            <mxPoint x="1820" y="3440"/>
                            <mxPoint x="1820" y="2945"/>
                        </Array>
                    </mxGeometry>
                </mxCell>
                <mxCell id="j3wj6hXbvJdG49vxagXG-40" value="&lt;font style=&quot;font-size: 18px;&quot;&gt;0,*&lt;/font&gt;" style="edgeLabel;resizable=0;html=1;align=left;verticalAlign=bottom;" parent="j3wj6hXbvJdG49vxagXG-39" connectable="0" vertex="1">
                    <mxGeometry x="-1" relative="1" as="geometry">
                        <mxPoint x="20" as="offset"/>
                    </mxGeometry>
                </mxCell>
                <mxCell id="j3wj6hXbvJdG49vxagXG-41" value="&lt;font style=&quot;font-size: 18px;&quot;&gt;1&lt;/font&gt;" style="edgeLabel;resizable=0;html=1;align=right;verticalAlign=bottom;" parent="j3wj6hXbvJdG49vxagXG-39" connectable="0" vertex="1">
                    <mxGeometry x="1" relative="1" as="geometry">
                        <mxPoint x="-6" y="41" as="offset"/>
                    </mxGeometry>
                </mxCell>
                <mxCell id="j3wj6hXbvJdG49vxagXG-42" value="&lt;font style=&quot;font-size: 18px;&quot;&gt;Make session&lt;/font&gt;" style="edgeLabel;html=1;align=center;verticalAlign=middle;resizable=0;points=[];" parent="j3wj6hXbvJdG49vxagXG-39" vertex="1" connectable="0">
                    <mxGeometry x="0.2985" y="7" relative="1" as="geometry">
                        <mxPoint x="31" y="-39" as="offset"/>
                    </mxGeometry>
                </mxCell>
                <mxCell id="j3wj6hXbvJdG49vxagXG-43" value="" style="shape=flexArrow;endArrow=classic;html=1;rounded=0;fontSize=18;" parent="WIyWlLk6GJQsqaUBKTNV-1" edge="1">
                    <mxGeometry width="50" height="50" relative="1" as="geometry">
                        <mxPoint x="2021.000000000001" y="2720.000000000001" as="sourcePoint"/>
                        <mxPoint x="1550" y="2610.000000000001" as="targetPoint"/>
                        <Array as="points">
                            <mxPoint x="2021" y="2690"/>
                            <mxPoint x="1550" y="2690"/>
                        </Array>
                    </mxGeometry>
                </mxCell>
                <mxCell id="j3wj6hXbvJdG49vxagXG-44" value="" style="shape=flexArrow;endArrow=classic;html=1;rounded=0;fontSize=18;" parent="WIyWlLk6GJQsqaUBKTNV-1" edge="1">
                    <mxGeometry width="50" height="50" relative="1" as="geometry">
                        <mxPoint x="1170" y="2730.000000000001" as="sourcePoint"/>
                        <mxPoint x="1550" y="2610.000000000001" as="targetPoint"/>
                        <Array as="points">
                            <mxPoint x="1170" y="2690"/>
                            <mxPoint x="1550" y="2690"/>
                        </Array>
                    </mxGeometry>
                </mxCell>
                <mxCell id="j3wj6hXbvJdG49vxagXG-45" value="" style="shape=flexArrow;endArrow=classic;html=1;rounded=0;fontSize=18;" parent="WIyWlLk6GJQsqaUBKTNV-1" edge="1">
                    <mxGeometry width="50" height="50" relative="1" as="geometry">
                        <mxPoint x="1550" y="2730.000000000001" as="sourcePoint"/>
                        <mxPoint x="1550" y="2610.000000000001" as="targetPoint"/>
                    </mxGeometry>
                </mxCell>
                <mxCell id="j3wj6hXbvJdG49vxagXG-46" value="Session" style="swimlane;fontStyle=1;align=center;verticalAlign=top;childLayout=stackLayout;horizontal=1;startSize=26;horizontalStack=0;resizeParent=1;resizeParentMax=0;resizeLast=0;collapsible=1;marginBottom=0;fontSize=18;fillColor=#FCFCF2;" parent="WIyWlLk6GJQsqaUBKTNV-1" vertex="1">
                    <mxGeometry x="1140" y="3310" width="200" height="86" as="geometry"/>
                </mxCell>
                <mxCell id="j3wj6hXbvJdG49vxagXG-47" value="+ Title: string" style="text;strokeColor=none;fillColor=none;align=left;verticalAlign=top;spacingLeft=4;spacingRight=4;overflow=hidden;rotatable=0;points=[[0,0.5],[1,0.5]];portConstraint=eastwest;fontSize=18;" parent="j3wj6hXbvJdG49vxagXG-46" vertex="1">
                    <mxGeometry y="26" width="200" height="26" as="geometry"/>
                </mxCell>
                <mxCell id="j3wj6hXbvJdG49vxagXG-48" value="" style="line;strokeWidth=1;fillColor=none;align=left;verticalAlign=middle;spacingTop=-1;spacingLeft=3;spacingRight=3;rotatable=0;labelPosition=right;points=[];portConstraint=eastwest;strokeColor=inherit;fontSize=18;" parent="j3wj6hXbvJdG49vxagXG-46" vertex="1">
                    <mxGeometry y="52" width="200" height="8" as="geometry"/>
                </mxCell>
                <mxCell id="j3wj6hXbvJdG49vxagXG-49" value="+ method(type): type" style="text;strokeColor=none;fillColor=none;align=left;verticalAlign=top;spacingLeft=4;spacingRight=4;overflow=hidden;rotatable=0;points=[[0,0.5],[1,0.5]];portConstraint=eastwest;fontSize=18;" parent="j3wj6hXbvJdG49vxagXG-46" vertex="1">
                    <mxGeometry y="60" width="200" height="26" as="geometry"/>
                </mxCell>
                <mxCell id="j3wj6hXbvJdG49vxagXG-50" value="Appointment" style="swimlane;fontStyle=1;align=center;verticalAlign=top;childLayout=stackLayout;horizontal=1;startSize=26;horizontalStack=0;resizeParent=1;resizeParentMax=0;resizeLast=0;collapsible=1;marginBottom=0;fontSize=18;fillColor=#FCFCF2;" parent="WIyWlLk6GJQsqaUBKTNV-1" vertex="1">
                    <mxGeometry x="1060" y="3140" width="160" height="86" as="geometry"/>
                </mxCell>
                <mxCell id="j3wj6hXbvJdG49vxagXG-51" value="+ field: type" style="text;strokeColor=none;fillColor=none;align=left;verticalAlign=top;spacingLeft=4;spacingRight=4;overflow=hidden;rotatable=0;points=[[0,0.5],[1,0.5]];portConstraint=eastwest;fontSize=18;" parent="j3wj6hXbvJdG49vxagXG-50" vertex="1">
                    <mxGeometry y="26" width="160" height="26" as="geometry"/>
                </mxCell>
                <mxCell id="j3wj6hXbvJdG49vxagXG-52" value="" style="line;strokeWidth=1;fillColor=none;align=left;verticalAlign=middle;spacingTop=-1;spacingLeft=3;spacingRight=3;rotatable=0;labelPosition=right;points=[];portConstraint=eastwest;strokeColor=inherit;fontSize=18;" parent="j3wj6hXbvJdG49vxagXG-50" vertex="1">
                    <mxGeometry y="52" width="160" height="8" as="geometry"/>
                </mxCell>
                <mxCell id="j3wj6hXbvJdG49vxagXG-53" value="+ method(type): type" style="text;strokeColor=none;fillColor=none;align=left;verticalAlign=top;spacingLeft=4;spacingRight=4;overflow=hidden;rotatable=0;points=[[0,0.5],[1,0.5]];portConstraint=eastwest;fontSize=18;" parent="j3wj6hXbvJdG49vxagXG-50" vertex="1">
                    <mxGeometry y="60" width="160" height="26" as="geometry"/>
                </mxCell>
                <mxCell id="j3wj6hXbvJdG49vxagXG-54" value="" style="endArrow=none;html=1;edgeStyle=orthogonalEdgeStyle;rounded=0;fontSize=18;exitX=1;exitY=0.5;exitDx=0;exitDy=0;" parent="WIyWlLk6GJQsqaUBKTNV-1" source="j3wj6hXbvJdG49vxagXG-51" edge="1">
                    <mxGeometry relative="1" as="geometry">
                        <mxPoint x="1280" y="3030" as="sourcePoint"/>
                        <mxPoint x="1590" y="2950.000000000001" as="targetPoint"/>
                        <Array as="points">
                            <mxPoint x="1580" y="3179"/>
                            <mxPoint x="1580" y="3119"/>
                            <mxPoint x="1590" y="3119"/>
                        </Array>
                    </mxGeometry>
                </mxCell>
                <mxCell id="j3wj6hXbvJdG49vxagXG-55" value="0, *&amp;nbsp;&amp;nbsp;" style="edgeLabel;resizable=0;html=1;align=left;verticalAlign=bottom;fontSize=18;fillColor=#FCFCF2;" parent="j3wj6hXbvJdG49vxagXG-54" connectable="0" vertex="1">
                    <mxGeometry x="-1" relative="1" as="geometry">
                        <mxPoint x="12" as="offset"/>
                    </mxGeometry>
                </mxCell>
                <mxCell id="j3wj6hXbvJdG49vxagXG-56" value="1" style="edgeLabel;resizable=0;html=1;align=right;verticalAlign=bottom;fontSize=18;fillColor=#FCFCF2;" parent="j3wj6hXbvJdG49vxagXG-54" connectable="0" vertex="1">
                    <mxGeometry x="1" relative="1" as="geometry">
                        <mxPoint y="31" as="offset"/>
                    </mxGeometry>
                </mxCell>
                <mxCell id="j3wj6hXbvJdG49vxagXG-57" value="&amp;nbsp;Have&amp;nbsp;" style="edgeLabel;html=1;align=center;verticalAlign=middle;resizable=0;points=[];fontSize=18;" parent="j3wj6hXbvJdG49vxagXG-54" vertex="1" connectable="0">
                    <mxGeometry x="0.6724" y="4" relative="1" as="geometry">
                        <mxPoint y="46" as="offset"/>
                    </mxGeometry>
                </mxCell>
                <mxCell id="j3wj6hXbvJdG49vxagXG-58" value="" style="endArrow=none;html=1;edgeStyle=orthogonalEdgeStyle;rounded=0;fontSize=18;exitX=0.721;exitY=1.059;exitDx=0;exitDy=0;entryX=0;entryY=0.5;entryDx=0;entryDy=0;exitPerimeter=0;" parent="WIyWlLk6GJQsqaUBKTNV-1" source="j3wj6hXbvJdG49vxagXG-38" target="j3wj6hXbvJdG49vxagXG-51" edge="1">
                    <mxGeometry relative="1" as="geometry">
                        <mxPoint x="1270" y="3010" as="sourcePoint"/>
                        <mxPoint x="1430" y="3010" as="targetPoint"/>
                        <Array as="points">
                            <mxPoint x="1230" y="3010"/>
                            <mxPoint x="1120" y="3010"/>
                            <mxPoint x="1120" y="3119"/>
                            <mxPoint x="1060" y="3119"/>
                        </Array>
                    </mxGeometry>
                </mxCell>
                <mxCell id="j3wj6hXbvJdG49vxagXG-59" value="1" style="edgeLabel;resizable=0;html=1;align=left;verticalAlign=bottom;fontSize=18;fillColor=#FCFCF2;" parent="j3wj6hXbvJdG49vxagXG-58" connectable="0" vertex="1">
                    <mxGeometry x="-1" relative="1" as="geometry">
                        <mxPoint y="34" as="offset"/>
                    </mxGeometry>
                </mxCell>
                <mxCell id="j3wj6hXbvJdG49vxagXG-60" value="1,*" style="edgeLabel;resizable=0;html=1;align=right;verticalAlign=bottom;fontSize=18;fillColor=#FCFCF2;" parent="j3wj6hXbvJdG49vxagXG-58" connectable="0" vertex="1">
                    <mxGeometry x="1" relative="1" as="geometry">
                        <mxPoint x="-24" as="offset"/>
                    </mxGeometry>
                </mxCell>
                <mxCell id="j3wj6hXbvJdG49vxagXG-61" value="&amp;nbsp;Book&amp;nbsp;&amp;nbsp;" style="edgeLabel;html=1;align=center;verticalAlign=middle;resizable=0;points=[];fontSize=18;" parent="j3wj6hXbvJdG49vxagXG-58" vertex="1" connectable="0">
                    <mxGeometry x="-0.0871" y="1" relative="1" as="geometry">
                        <mxPoint as="offset"/>
                    </mxGeometry>
                </mxCell>
                <mxCell id="j3wj6hXbvJdG49vxagXG-62" value="" style="endArrow=none;html=1;edgeStyle=orthogonalEdgeStyle;rounded=0;fontSize=18;entryX=0.5;entryY=1;entryDx=0;entryDy=0;exitX=1;exitY=0.5;exitDx=0;exitDy=0;" parent="WIyWlLk6GJQsqaUBKTNV-1" source="j3wj6hXbvJdG49vxagXG-47" target="j3wj6hXbvJdG49vxagXG-50" edge="1">
                    <mxGeometry relative="1" as="geometry">
                        <mxPoint x="1340" y="3310" as="sourcePoint"/>
                        <mxPoint x="1620" y="2950" as="targetPoint"/>
                        <Array as="points">
                            <mxPoint x="1340" y="3310"/>
                            <mxPoint x="1660" y="3310"/>
                            <mxPoint x="1660" y="3220"/>
                            <mxPoint x="1430" y="3220"/>
                        </Array>
                    </mxGeometry>
                </mxCell>
                <mxCell id="j3wj6hXbvJdG49vxagXG-63" value="1" style="edgeLabel;resizable=0;html=1;align=left;verticalAlign=bottom;fontSize=18;fillColor=#FCFCF2;" parent="j3wj6hXbvJdG49vxagXG-62" connectable="0" vertex="1">
                    <mxGeometry x="-1" relative="1" as="geometry">
                        <mxPoint x="35" as="offset"/>
                    </mxGeometry>
                </mxCell>
                <mxCell id="j3wj6hXbvJdG49vxagXG-64" value="&amp;nbsp;1,*&amp;nbsp;&amp;nbsp;" style="edgeLabel;resizable=0;html=1;align=right;verticalAlign=bottom;fontSize=18;fillColor=#FCFCF2;" parent="j3wj6hXbvJdG49vxagXG-62" connectable="0" vertex="1">
                    <mxGeometry x="1" relative="1" as="geometry">
                        <mxPoint x="64" y="41" as="offset"/>
                    </mxGeometry>
                </mxCell>
                <mxCell id="j3wj6hXbvJdG49vxagXG-65" value="Have" style="edgeLabel;html=1;align=center;verticalAlign=middle;resizable=0;points=[];fontSize=18;" parent="j3wj6hXbvJdG49vxagXG-62" vertex="1" connectable="0">
                    <mxGeometry x="0.1088" relative="1" as="geometry">
                        <mxPoint as="offset"/>
                    </mxGeometry>
                </mxCell>
            </root>
        </mxGraphModel>
    </diagram>
</mxfile>